<svg width="24" height="24" viewBox="0 0 24 24" fill="none" xmlns="http://www.w3.org/2000/svg">
<rect width="24" height="24" rx="6" fill="#5679BD"/>
<path d="M11.9999 15.6667C12.8333 15.6667 13.5416 15.375 14.1249 14.7917C14.7083 14.2083 14.9999 13.5 14.9999 12.6667C14.9999 11.8333 14.7083 11.125 14.1249 10.5417C13.5416 9.95833 12.8333 9.66667 11.9999 9.66667C11.1666 9.66667 10.4583 9.95833 9.87492 10.5417C9.29159 11.125 8.99992 11.8333 8.99992 12.6667C8.99992 13.5 9.29159 14.2083 9.87492 14.7917C10.4583 15.375 11.1666 15.6667 11.9999 15.6667ZM11.9999 14.3333C11.5333 14.3333 11.1388 14.1722 10.8166 13.85C10.4944 13.5278 10.3333 13.1333 10.3333 12.6667C10.3333 12.2 10.4944 11.8056 10.8166 11.4833C11.1388 11.1611 11.5333 11 11.9999 11C12.4666 11 12.861 11.1611 13.1833 11.4833C13.5055 11.8056 13.6666 12.2 13.6666 12.6667C13.6666 13.1333 13.5055 13.5278 13.1833 13.85C12.861 14.1722 12.4666 14.3333 11.9999 14.3333ZM6.66659 18C6.29992 18 5.98603 17.8694 5.72492 17.6083C5.46381 17.3472 5.33325 17.0333 5.33325 16.6667V8.66667C5.33325 8.3 5.46381 7.98611 5.72492 7.725C5.98603 7.46389 6.29992 7.33333 6.66659 7.33333H8.76659L9.99992 6H13.9999L15.2333 7.33333H17.3333C17.6999 7.33333 18.0138 7.46389 18.2749 7.725C18.536 7.98611 18.6666 8.3 18.6666 8.66667V16.6667C18.6666 17.0333 18.536 17.3472 18.2749 17.6083C18.0138 17.8694 17.6999 18 17.3333 18H6.66659ZM6.66659 16.6667H17.3333V8.66667H14.6333L13.4166 7.33333H10.5833L9.36659 8.66667H6.66659V16.6667Z" fill="#F9F9F9"/>
</svg>
